<?xml version="1.0" encoding="UTF-8" standalone="no"?>
<svg width="500" height="500" viewBox="0 0 500 500" xmlns="http://www.w3.org/2000/svg">
    <!-- Background Circle with Gradient -->
    <defs>
        <linearGradient id="powerGradient" x1="0%" y1="0%" x2="100%" y2="100%">
            <stop offset="0%" style="stop-color:#4a6cf7;stop-opacity:1" />
            <stop offset="100%" style="stop-color:#8a94ff;stop-opacity:1" />
        </linearGradient>
        <filter id="glow" x="-50%" y="-50%" width="200%" height="200%">
            <feGaussianBlur stdDeviation="10" result="blur" />
            <feComposite in="SourceGraphic" in2="blur" operator="over" />
        </filter>
    </defs>
    
    <!-- Main Circle -->
    <circle cx="250" cy="250" r="230" fill="url(#powerGradient)" />
    
    <!-- Globe/Web Grid -->
    <g stroke="rgba(255,255,255,0.6)" stroke-width="4" fill="none">
        <!-- Horizontal lines -->
        <path d="M50,250 C50,250 150,200 250,200 S450,250 450,250" />
        <path d="M50,250 C50,250 150,300 250,300 S450,250 450,250" />
        
        <!-- Vertical lines -->
        <path d="M250,50 C250,50 200,150 200,250 S250,450 250,450" />
        <path d="M250,50 C250,50 300,150 300,250 S250,450 250,450" />
        
        <!-- Circles -->
        <circle cx="250" cy="250" r="150" />
        <ellipse cx="250" cy="250" rx="230" ry="120" />
    </g>
    
    <!-- Power Symbol -->
    <g stroke="white" stroke-width="25" stroke-linecap="round" stroke-linejoin="round">
        <path d="M250,100 L250,250" />
        <path d="M190,100 L310,100" />
    </g>
    
    <!-- Lightning Bolt -->
    <path d="M270,180 L220,270 L270,270 L230,370" 
          stroke="#FFD700" stroke-width="15" fill="none" 
          stroke-linecap="round" stroke-linejoin="round"
          filter="url(#glow)" />
    
    <!-- Outer Ring with Glow -->
    <circle cx="250" cy="250" r="230" fill="none" stroke="white" stroke-width="12" />
    
    <!-- Security Shield Icon -->
    <g transform="translate(350, 350) scale(0.6)">
        <path d="M0,0 L60,0 L60,80 L30,100 L0,80 Z" fill="#2ecc71" stroke="white" stroke-width="5" />
        <path d="M15,40 L25,50 L45,30" stroke="white" stroke-width="5" fill="none" stroke-linecap="round" stroke-linejoin="round" />
    </g>
</svg>
